<svg width="12" height="20" viewBox="0 0 12 20" fill="none" xmlns="http://www.w3.org/2000/svg">
<path d="M1.96094 1.99609V8H0.835938V1.99609H1.96094ZM4.625 3.77344L2.78906 5.86719L1.80469 6.86328L1.39453 6.05078L2.17578 5.05859L3.27344 3.77344H4.625ZM3.45703 8L2.20703 6.04688L2.98438 5.36719L4.75391 8H3.45703ZM6.23438 4.64844V8H5.10547V3.77344H6.16406L6.23438 4.64844ZM6.07812 5.73828H5.76562C5.76562 5.44401 5.80078 5.17318 5.87109 4.92578C5.94401 4.67578 6.04948 4.45964 6.1875 4.27734C6.32812 4.09245 6.5013 3.94922 6.70703 3.84766C6.91276 3.74609 7.15104 3.69531 7.42188 3.69531C7.60938 3.69531 7.78125 3.72396 7.9375 3.78125C8.09375 3.83594 8.22786 3.92318 8.33984 4.04297C8.45443 4.16016 8.54297 4.3138 8.60547 4.50391C8.66797 4.69141 8.69922 4.91667 8.69922 5.17969V8H7.57422V5.30469C7.57422 5.11198 7.54818 4.96354 7.49609 4.85938C7.44401 4.75521 7.36979 4.68229 7.27344 4.64062C7.17969 4.59896 7.06641 4.57812 6.93359 4.57812C6.78776 4.57812 6.66016 4.60807 6.55078 4.66797C6.44401 4.72786 6.35547 4.8112 6.28516 4.91797C6.21484 5.02214 6.16276 5.14453 6.12891 5.28516C6.09505 5.42578 6.07812 5.57682 6.07812 5.73828ZM8.59375 5.60938L8.19141 5.66016C8.19141 5.38411 8.22526 5.1276 8.29297 4.89062C8.36328 4.65365 8.46615 4.44531 8.60156 4.26562C8.73958 4.08594 8.91016 3.94661 9.11328 3.84766C9.31641 3.74609 9.55078 3.69531 9.81641 3.69531C10.0195 3.69531 10.2044 3.72526 10.3711 3.78516C10.5378 3.84245 10.6797 3.9349 10.7969 4.0625C10.9167 4.1875 11.0078 4.35156 11.0703 4.55469C11.1354 4.75781 11.168 5.00651 11.168 5.30078V8H10.0391V5.30078C10.0391 5.10547 10.013 4.95703 9.96094 4.85547C9.91146 4.7513 9.83854 4.67969 9.74219 4.64062C9.64844 4.59896 9.53646 4.57812 9.40625 4.57812C9.27083 4.57812 9.15234 4.60547 9.05078 4.66016C8.94922 4.71224 8.86458 4.78516 8.79688 4.87891C8.72917 4.97266 8.67839 5.08203 8.64453 5.20703C8.61068 5.32943 8.59375 5.46354 8.59375 5.60938ZM5.29297 12V18H4.16797V12H5.29297ZM5.13281 15.7383H4.82422C4.82682 15.444 4.86589 15.1732 4.94141 14.9258C5.01693 14.6758 5.125 14.4596 5.26562 14.2773C5.40625 14.0924 5.57422 13.9492 5.76953 13.8477C5.96745 13.7461 6.1862 13.6953 6.42578 13.6953C6.63411 13.6953 6.82292 13.7253 6.99219 13.7852C7.16406 13.8424 7.3112 13.9362 7.43359 14.0664C7.55859 14.194 7.65495 14.362 7.72266 14.5703C7.79036 14.7786 7.82422 15.0312 7.82422 15.3281V18H6.69141V15.3203C6.69141 15.1328 6.66406 14.9857 6.60938 14.8789C6.55729 14.7695 6.48047 14.6927 6.37891 14.6484C6.27995 14.6016 6.15755 14.5781 6.01172 14.5781C5.85026 14.5781 5.71224 14.6081 5.59766 14.668C5.48568 14.7279 5.39583 14.8112 5.32812 14.918C5.26042 15.0221 5.21094 15.1445 5.17969 15.2852C5.14844 15.4258 5.13281 15.5768 5.13281 15.7383Z" fill="#FFEBBB"/>
<path d="M0 10H12" stroke="#FFEBBB"/>
</svg>
